<?xml version="1.0" encoding="UTF-8" ?>
<!DOCTYPE svg PUBLIC "-//W3C//DTD SVG 1.1//EN" "http://www.w3.org/Graphics/SVG/1.1/DTD/svg11.dtd">
<svg width="583pt" height="231pt" viewBox="0 0 583 231" version="1.1" xmlns="http://www.w3.org/2000/svg">
<g id="#ffffffff">
<path fill="#ffffff" opacity="1.00" d=" M 487.24 30.01 C 493.49 29.99 499.74 30.00 506.00 30.00 C 506.01 46.67 505.99 63.33 506.00 80.00 C 510.00 79.99 514.00 80.01 518.00 80.00 C 518.00 85.67 518.00 91.33 518.00 97.00 C 514.00 96.99 510.00 97.01 506.00 97.00 C 505.99 104.33 506.00 111.66 506.00 119.00 C 499.33 119.00 492.67 119.00 486.00 119.00 C 485.99 111.67 486.00 104.33 486.00 97.00 C 473.02 96.95 460.05 97.10 447.07 96.93 C 447.24 91.48 446.39 85.79 447.45 80.49 C 460.59 63.57 473.92 46.79 487.24 30.01 M 481.39 59.39 C 476.36 66.40 470.52 72.83 465.72 79.98 C 472.48 80.03 479.24 79.99 486.00 80.00 C 485.95 71.54 486.11 63.08 485.92 54.62 C 484.11 55.90 482.73 57.66 481.39 59.39 Z" />
</g>
<g id="#000000ff">
<path fill="#000000" opacity="1.00" d=" M 451.35 2.31 C 452.53 2.09 453.72 1.98 454.93 1.99 C 471.95 2.00 488.97 2.01 505.99 1.99 C 512.03 1.76 517.98 3.13 524.03 3.02 C 537.07 4.88 549.19 11.27 558.77 20.22 C 573.42 34.80 581.31 55.50 581.02 76.06 C 580.31 90.52 576.61 105.24 568.17 117.20 C 560.01 129.29 547.66 138.58 533.62 142.65 C 521.43 146.34 508.56 145.01 496.00 145.50 C 461.34 146.25 426.67 145.94 392.00 146.00 C 315.33 146.10 238.66 145.65 162.00 147.01 C 110.67 146.98 59.33 147.03 8.00 147.01 C 5.58 147.19 3.54 145.53 2.79 143.30 C 0.78 140.18 2.60 136.25 5.30 134.22 C 8.38 132.95 11.77 133.30 15.01 133.32 C 118.36 133.86 221.71 134.10 325.06 133.96 C 336.19 133.16 347.61 131.86 357.73 126.78 C 364.73 123.46 370.12 117.76 374.32 111.38 C 392.22 82.92 395.13 47.43 414.93 19.96 C 420.98 12.34 429.06 5.82 438.77 3.75 C 442.85 2.44 447.22 3.41 451.35 2.31 M 487.24 30.01 C 473.92 46.79 460.59 63.57 447.45 80.49 C 446.39 85.79 447.24 91.48 447.07 96.93 C 460.05 97.10 473.02 96.95 486.00 97.00 C 486.00 104.33 485.99 111.67 486.00 119.00 C 492.67 119.00 499.33 119.00 506.00 119.00 C 506.00 111.66 505.99 104.33 506.00 97.00 C 510.00 97.01 514.00 96.99 518.00 97.00 C 518.00 91.33 518.00 85.67 518.00 80.00 C 514.00 80.01 510.00 79.99 506.00 80.00 C 505.99 63.33 506.01 46.67 506.00 30.00 C 499.74 30.00 493.49 29.99 487.24 30.01 Z" />
<path fill="#000000" opacity="1.00" d=" M 63.11 19.07 C 73.86 17.03 84.88 18.30 95.76 18.01 C 98.76 20.70 100.46 25.46 97.96 29.02 C 97.25 30.74 95.50 31.41 93.84 31.87 C 83.77 32.58 73.46 30.75 63.62 33.64 C 51.39 36.80 39.70 44.89 34.99 56.97 C 31.48 65.53 32.66 75.62 37.64 83.37 C 44.80 95.22 58.57 101.54 71.96 102.98 C 78.97 103.12 85.98 102.85 92.98 103.06 C 96.85 103.32 99.77 107.16 99.06 110.96 C 99.28 113.48 97.19 115.23 95.74 116.99 C 87.15 117.11 78.56 117.09 69.96 117.00 C 54.50 115.43 38.93 109.38 28.22 97.78 C 19.94 89.79 15.49 78.39 15.01 67.00 C 15.79 58.31 18.35 49.62 23.65 42.59 C 32.94 29.80 47.71 21.82 63.11 19.07 Z" />
<path fill="#000000" opacity="1.00" d=" M 193.23 21.38 C 195.05 18.47 198.80 18.01 201.95 17.98 C 226.33 18.08 250.71 17.94 275.09 18.05 C 280.91 18.94 287.12 18.52 292.38 21.61 C 296.45 23.22 299.33 26.64 302.25 29.76 C 307.73 36.46 309.95 44.98 313.23 52.82 C 315.66 58.96 318.00 65.12 320.43 71.26 C 327.01 57.40 332.82 43.18 339.24 29.25 C 340.73 25.73 342.05 21.63 345.65 19.70 C 349.11 17.48 353.32 17.96 357.23 18.06 C 356.96 20.72 355.49 23.00 354.38 25.38 C 346.48 43.09 338.40 60.72 330.35 78.36 C 327.48 84.27 325.31 90.55 321.79 96.13 C 318.76 96.74 317.25 94.10 316.29 91.71 C 309.94 76.78 303.22 62.02 296.95 47.05 C 293.91 39.02 287.20 31.28 278.02 31.04 C 251.35 30.97 224.67 31.04 197.99 31.00 C 193.09 31.02 192.09 25.16 193.23 21.38 Z" />
<path fill="#000000" opacity="1.00" d=" M 366.26 20.23 C 370.21 16.95 375.57 18.15 380.27 18.08 C 378.99 23.34 375.74 27.82 373.85 32.85 C 363.66 55.27 353.09 77.52 342.98 99.97 C 340.84 104.06 339.51 108.82 335.74 111.78 C 326.29 119.45 311.22 118.97 302.25 110.74 C 299.18 107.20 297.46 102.78 295.32 98.67 C 288.32 84.61 281.46 70.48 274.67 56.32 C 272.74 50.77 265.01 49.77 260.40 52.37 C 258.54 54.50 259.02 57.39 258.99 59.99 C 259.03 76.66 259.01 93.33 259.00 109.99 C 258.97 114.43 254.26 117.38 250.19 116.87 C 247.47 116.23 244.83 115.00 243.20 112.65 C 241.76 108.24 242.46 103.54 242.31 99.00 C 242.47 80.67 242.00 62.35 242.09 44.03 C 242.02 41.15 244.11 38.75 246.33 37.16 C 254.55 36.75 262.80 37.15 271.03 36.98 C 275.29 36.66 279.79 38.09 282.79 41.21 C 287.37 45.42 289.44 51.50 292.02 57.00 C 297.25 69.04 302.67 80.99 308.01 92.98 C 309.63 96.02 310.51 99.54 312.82 102.16 C 317.57 105.57 325.44 104.76 328.18 99.16 C 339.83 74.80 351.20 50.28 362.89 25.93 C 363.83 23.94 364.87 21.96 366.26 20.23 Z" />
<path fill="#000000" opacity="1.00" d=" M 40.37 58.39 C 45.41 45.74 58.89 38.24 71.98 37.00 C 79.91 36.87 87.84 36.87 95.76 37.01 C 100.24 40.37 100.54 48.83 94.70 50.85 C 87.56 51.43 80.34 50.54 73.21 51.24 C 66.93 52.84 59.95 56.15 57.81 62.79 C 55.75 67.65 57.46 73.34 60.75 77.23 C 64.20 80.96 69.16 82.98 74.06 83.92 C 80.66 84.20 87.28 83.79 93.88 84.05 C 97.60 84.45 99.59 88.54 99.06 91.96 C 99.18 94.44 97.20 96.23 95.77 98.00 C 87.51 98.21 79.24 98.21 70.97 97.97 C 61.70 96.79 52.58 92.74 46.21 85.78 C 39.10 78.83 36.87 67.61 40.37 58.39 Z" />
<path fill="#000000" opacity="1.00" d=" M 196.27 50.89 C 190.95 48.01 191.72 38.01 198.12 37.05 C 208.09 36.90 218.07 37.06 228.04 36.98 C 229.75 36.80 231.32 37.55 232.88 38.14 C 234.00 40.96 235.19 43.85 234.92 46.95 C 234.88 66.65 234.56 86.35 234.69 106.05 C 234.41 108.86 234.80 112.38 232.29 114.30 C 228.20 118.70 219.42 116.93 218.05 110.87 C 217.89 92.59 218.08 74.31 217.95 56.03 C 217.94 53.39 215.54 51.20 212.97 51.13 C 207.41 50.88 201.82 51.43 196.27 50.89 Z" />
<path fill="#000000" opacity="1.00" d=" M 481.39 59.39 C 482.73 57.66 484.11 55.90 485.92 54.62 C 486.11 63.08 485.95 71.54 486.00 80.00 C 479.24 79.99 472.48 80.03 465.72 79.98 C 470.52 72.83 476.36 66.40 481.39 59.39 Z" />
<path fill="#000000" opacity="1.00" d=" M 135.59 152.76 C 139.04 152.72 142.49 152.72 145.94 152.75 C 146.00 154.70 146.02 156.65 146.11 158.60 C 156.49 158.48 166.87 158.52 177.25 158.57 C 177.27 177.06 177.29 195.55 177.25 214.04 C 177.30 217.51 174.82 221.49 171.01 221.43 C 162.70 221.50 154.39 221.50 146.09 221.41 C 146.01 223.75 145.99 226.09 145.98 228.44 C 142.50 228.48 139.03 228.48 135.56 228.44 C 135.54 226.12 135.52 223.80 135.50 221.49 C 125.25 221.42 115.00 221.53 104.75 221.43 C 104.72 200.48 104.72 179.52 104.75 158.57 C 115.00 158.49 125.25 158.55 135.50 158.54 C 135.53 156.61 135.54 154.68 135.59 152.76 M 115.49 168.49 C 115.40 182.68 115.56 196.87 115.41 211.06 C 122.12 211.40 128.88 211.41 135.59 211.06 C 135.44 196.87 135.60 182.68 135.51 168.49 C 128.84 168.45 122.16 168.45 115.49 168.49 M 146.08 168.41 C 145.90 182.69 146.04 196.97 146.01 211.25 C 152.86 211.12 159.75 211.64 166.58 210.95 C 166.91 196.78 166.67 182.61 166.71 168.44 C 159.83 168.47 152.96 168.51 146.08 168.41 Z" />
<path fill="#000000" opacity="1.00" d=" M 227.60 153.42 C 231.61 153.14 235.64 153.27 239.66 153.31 C 240.30 155.09 240.93 156.87 241.55 158.67 C 251.69 158.83 261.84 158.66 271.99 158.75 C 272.00 162.13 272.00 165.50 272.01 168.88 C 270.78 168.98 269.55 169.09 268.32 169.21 C 260.07 179.32 251.40 189.09 243.18 199.21 L 243.04 199.90 C 245.34 203.23 248.20 206.14 250.71 209.32 C 253.05 211.98 255.20 214.99 258.31 216.80 C 261.90 218.38 265.96 217.47 269.76 217.83 C 269.72 221.28 269.73 224.73 269.75 228.18 C 262.86 227.91 254.78 229.98 249.13 224.87 C 243.82 220.09 239.05 214.73 234.00 209.68 C 229.68 214.13 225.44 218.67 221.20 223.19 C 218.97 225.52 216.43 228.08 212.98 228.14 C 207.58 228.45 202.17 228.20 196.76 228.24 C 196.72 224.74 196.72 221.25 196.76 217.76 C 201.65 217.32 207.44 219.02 211.53 215.52 C 216.59 211.07 220.61 205.60 225.26 200.75 C 217.99 191.82 209.96 183.52 202.61 174.65 C 207.75 174.40 212.90 174.60 218.05 174.51 C 223.41 180.00 228.26 186.00 233.83 191.29 C 240.18 183.78 246.82 176.52 253.17 169.01 C 234.36 168.98 215.56 169.02 196.76 168.99 C 196.72 165.52 196.72 162.04 196.75 158.57 C 206.33 158.46 215.90 158.61 225.48 158.50 C 226.22 156.82 226.93 155.13 227.60 153.42 Z" />
<path fill="#000000" opacity="1.00" d=" M 289.57 153.75 C 313.96 153.77 338.36 153.62 362.75 153.83 C 362.71 174.89 362.74 195.95 362.73 217.01 C 362.68 220.41 362.48 224.40 359.50 226.64 C 355.87 228.12 351.84 227.66 348.01 227.74 C 328.57 227.78 309.12 227.62 289.68 227.82 C 289.36 203.14 289.58 178.44 289.57 153.75 M 300.47 162.47 C 300.43 181.33 300.55 200.19 300.41 219.05 C 313.26 219.55 326.13 219.13 339.00 219.27 C 343.15 219.12 347.41 219.77 351.46 218.56 C 351.63 199.86 351.48 181.16 351.53 162.47 C 334.51 162.47 317.49 162.47 300.47 162.47 Z" />
<path fill="#000000" opacity="1.00" d=" M 382.17 153.68 C 392.26 153.35 402.36 153.61 412.45 153.55 C 412.38 162.38 412.68 171.22 412.30 180.03 C 412.33 182.95 410.61 185.33 408.44 187.10 C 410.03 188.81 412.35 190.39 412.36 192.99 C 412.61 200.65 412.41 208.34 412.46 216.01 C 412.30 219.37 411.82 224.20 407.74 224.95 C 402.73 225.93 397.57 225.33 392.50 225.42 C 392.32 226.53 392.13 227.63 391.95 228.74 C 388.72 228.73 385.49 228.73 382.27 228.73 C 382.20 203.71 382.39 178.69 382.17 153.68 M 392.23 163.05 C 392.30 169.61 392.25 176.16 392.27 182.72 C 395.65 182.74 399.04 182.83 402.42 182.54 C 403.05 176.06 402.58 169.54 402.77 163.05 C 399.25 162.98 395.74 162.97 392.23 163.05 M 392.17 192.66 C 392.38 200.35 392.21 208.04 392.27 215.72 C 395.64 215.74 399.02 215.82 402.38 215.54 C 403.05 208.05 402.72 200.49 402.59 192.98 C 399.18 192.10 395.63 192.43 392.17 192.66 Z" />
<path fill="#000000" opacity="1.00" d=" M 415.00 153.57 C 428.81 153.50 442.63 153.53 456.45 153.55 C 456.47 156.70 456.48 159.85 456.43 163.00 C 442.62 163.00 428.81 163.00 415.00 163.00 C 415.00 159.85 414.99 156.71 415.00 153.57 Z" />
<path fill="#000000" opacity="1.00" d=" M 304.82 168.25 C 318.99 168.23 333.16 168.37 347.33 168.18 C 347.50 170.93 347.49 173.69 347.45 176.45 C 341.66 176.46 335.87 176.52 330.08 176.41 C 329.97 179.47 329.97 182.53 330.08 185.59 C 335.72 185.49 341.37 185.52 347.01 185.57 C 347.00 188.30 347.00 191.03 346.96 193.77 C 341.31 193.71 335.66 193.72 330.01 193.76 C 329.99 197.76 329.96 201.78 330.06 205.79 C 331.93 205.75 333.80 205.81 335.67 205.68 C 337.24 204.35 337.80 202.21 338.85 200.49 C 340.96 200.53 343.07 200.55 345.19 200.59 C 345.30 202.23 345.42 203.88 345.49 205.54 C 346.22 205.63 347.68 205.83 348.41 205.92 C 348.48 208.72 348.48 211.51 348.43 214.31 C 333.88 213.66 319.31 214.16 304.75 213.99 C 304.73 211.25 304.73 208.50 304.76 205.76 C 309.69 205.71 314.62 205.75 319.56 205.71 C 319.52 201.79 319.50 197.87 319.59 193.95 C 314.68 193.51 309.75 193.80 304.83 193.75 C 304.72 191.03 304.71 188.30 304.74 185.57 C 309.67 185.51 314.60 185.53 319.53 185.54 C 319.53 182.51 319.53 179.49 319.53 176.46 C 314.60 176.47 309.67 176.49 304.74 176.43 C 304.72 173.70 304.72 170.97 304.82 168.25 Z" />
<path fill="#000000" opacity="1.00" d=" M 414.83 174.25 C 428.66 174.23 442.49 174.37 456.31 174.18 C 456.55 177.38 456.55 180.61 456.32 183.82 C 451.22 183.65 446.11 183.75 441.01 183.75 C 440.98 195.87 441.02 207.98 441.00 220.09 C 440.86 222.85 440.68 226.57 437.65 227.75 C 434.31 228.97 430.66 228.40 427.19 228.34 C 427.28 225.38 427.29 222.43 427.25 219.47 C 428.46 219.28 429.68 219.09 430.90 218.88 C 431.71 207.20 431.08 195.46 431.24 183.76 C 425.77 183.71 420.30 183.72 414.83 183.75 C 414.68 180.58 414.68 177.41 414.83 174.25 Z" />
<path fill="#000000" opacity="1.00" d=" M 420.09 190.00 C 423.00 189.99 425.92 189.99 428.84 190.05 C 427.64 200.16 426.40 210.26 425.18 220.36 C 424.77 222.33 424.72 224.62 423.28 226.16 C 420.58 227.82 417.24 227.17 414.24 227.18 C 414.27 224.23 414.28 221.29 414.25 218.35 C 415.15 217.87 416.06 217.39 416.96 216.90 C 417.95 207.93 419.16 198.98 420.09 190.00 Z" />
<path fill="#000000" opacity="1.00" d=" M 443.76 190.16 C 446.55 190.29 449.35 190.29 452.16 190.27 C 453.05 199.17 453.38 208.13 454.43 217.03 C 455.51 217.27 456.60 217.50 457.70 217.71 C 457.73 220.72 457.74 223.73 457.73 226.74 C 454.81 226.60 451.72 227.21 448.96 226.04 C 446.40 224.74 446.22 221.49 445.86 219.00 C 445.23 209.38 444.07 199.79 443.76 190.16 Z" />
</g>
<g id="#ff0000ff">
<path fill="#ff0000" opacity="1.00" d=" M 140.82 21.72 C 153.98 16.76 168.21 18.08 181.98 18.05 C 184.93 17.97 185.70 21.25 186.67 23.40 C 188.06 26.78 184.98 29.72 182.92 32.03 C 171.73 32.33 160.23 30.75 149.41 34.40 C 137.68 37.61 126.89 45.91 122.40 57.42 C 120.32 62.34 121.05 67.77 121.04 72.96 C 122.16 78.85 124.88 84.55 129.23 88.76 C 136.84 97.10 147.85 101.83 158.97 102.98 C 166.45 103.37 174.05 102.31 181.46 103.52 C 187.70 104.54 188.06 113.51 183.70 116.98 C 173.84 117.70 163.93 117.58 154.06 116.91 C 139.39 114.55 124.96 108.27 114.73 97.26 C 103.48 85.80 99.61 67.58 105.62 52.65 C 111.69 37.49 125.58 26.69 140.82 21.72 Z" />
<path fill="#ff0000" opacity="1.00" d=" M 132.94 49.90 C 139.79 42.22 149.85 37.96 159.97 37.02 C 167.94 36.93 175.91 37.01 183.89 37.00 C 185.46 39.74 187.99 43.05 186.36 46.30 C 185.70 47.90 185.12 49.68 183.67 50.76 C 174.25 51.94 164.22 49.17 155.28 53.32 C 146.82 56.06 141.00 67.51 146.77 75.19 C 149.51 77.49 151.48 80.78 154.97 82.05 C 163.41 85.79 172.84 83.07 181.70 84.21 C 184.73 85.17 186.52 88.05 186.98 91.07 C 186.31 93.48 185.75 96.21 183.69 97.85 C 180.18 98.62 176.57 98.47 173.01 98.48 C 164.49 98.37 155.65 98.83 147.65 95.40 C 138.00 91.88 129.58 84.18 127.00 74.00 C 124.19 65.61 127.48 56.45 132.94 49.90 Z" />
</g>
</svg>
